<svg width="319" height="319" viewBox="0 0 319 319" fill="none" xmlns="http://www.w3.org/2000/svg">
<rect width="319" height="319" rx="49" fill="url(#paint0_linear_6_3)"/>
<path d="M211.696 156.23C211.716 154.162 211.086 152.549 209.803 151.39C208.521 150.232 206.484 149.653 203.692 149.653C201.913 149.653 200.445 149.86 199.287 150.274C198.128 150.687 197.249 151.256 196.65 151.98C196.071 152.704 195.729 153.541 195.626 154.493C195.523 155.237 195.605 155.92 195.874 156.54C196.143 157.14 196.608 157.688 197.27 158.184C197.932 158.681 198.801 159.125 199.876 159.518C200.952 159.911 202.223 160.263 203.692 160.573L208.78 161.69C212.233 162.435 215.16 163.417 217.559 164.637C219.979 165.837 221.913 167.264 223.36 168.918C224.829 170.573 225.852 172.424 226.432 174.471C227.031 176.519 227.228 178.752 227.021 181.172C226.669 185.35 225.335 188.887 223.019 191.782C220.723 194.677 217.59 196.88 213.619 198.39C209.648 199.9 204.974 200.655 199.597 200.655C194.096 200.655 189.359 199.838 185.388 198.204C181.418 196.549 178.439 194.026 176.454 190.634C174.468 187.222 173.683 182.868 174.096 177.574H190.476C190.414 179.518 190.766 181.152 191.531 182.475C192.296 183.799 193.434 184.802 194.943 185.484C196.474 186.167 198.335 186.508 200.528 186.508C202.389 186.508 203.961 186.281 205.243 185.826C206.525 185.371 207.518 184.74 208.221 183.933C208.924 183.127 209.317 182.206 209.4 181.172C209.483 180.2 209.245 179.352 208.687 178.628C208.128 177.884 207.177 177.212 205.832 176.612C204.488 176.012 202.658 175.464 200.341 174.968L194.137 173.603C188.636 172.362 184.385 170.314 181.387 167.46C178.388 164.606 177.095 160.697 177.509 155.734C177.84 151.68 179.215 148.143 181.635 145.124C184.075 142.084 187.302 139.726 191.314 138.051C195.326 136.355 199.845 135.507 204.871 135.507C210 135.507 214.364 136.365 217.962 138.082C221.582 139.798 224.281 142.208 226.059 145.31C227.838 148.412 228.551 152.052 228.2 156.23H211.696Z" fill="black"/>
<rect x="201.955" y="125.83" width="5.84878" height="79.9184" rx="1.82" transform="rotate(5 201.955 125.83)" fill="black"/>
<path d="M129.796 156.23C129.816 154.162 129.186 152.549 127.903 151.39C126.621 150.232 124.584 149.653 121.792 149.653C120.013 149.653 118.545 149.86 117.387 150.274C116.228 150.687 115.349 151.256 114.75 151.98C114.171 152.704 113.829 153.541 113.726 154.493C113.623 155.237 113.705 155.92 113.974 156.54C114.243 157.14 114.708 157.688 115.37 158.184C116.032 158.681 116.901 159.125 117.976 159.518C119.052 159.911 120.323 160.263 121.792 160.573L126.88 161.69C130.333 162.435 133.26 163.417 135.659 164.637C138.079 165.837 140.013 167.264 141.46 168.918C142.929 170.573 143.952 172.424 144.532 174.471C145.131 176.519 145.328 178.752 145.121 181.172C144.769 185.35 143.435 188.887 141.119 191.782C138.823 194.677 135.69 196.88 131.719 198.39C127.748 199.9 123.074 200.655 117.697 200.655C112.195 200.655 107.459 199.838 103.488 198.204C99.5175 196.549 96.5394 194.026 94.5539 190.634C92.5684 187.222 91.7825 182.868 92.1962 177.574H108.576C108.514 179.518 108.866 181.152 109.631 182.475C110.396 183.799 111.534 184.802 113.043 185.484C114.574 186.167 116.435 186.508 118.628 186.508C120.489 186.508 122.061 186.281 123.343 185.826C124.625 185.371 125.618 184.74 126.321 183.933C127.024 183.127 127.417 182.206 127.5 181.172C127.583 180.2 127.345 179.352 126.787 178.628C126.228 177.884 125.277 177.212 123.932 176.612C122.588 176.012 120.758 175.464 118.441 174.968L112.237 173.603C106.735 172.362 102.485 170.314 99.4865 167.46C96.4877 164.606 95.195 160.697 95.6087 155.734C95.9396 151.68 97.3149 148.143 99.7347 145.124C102.175 142.084 105.402 139.726 109.414 138.051C113.426 136.355 117.945 135.507 122.971 135.507C128.1 135.507 132.464 136.365 136.062 138.082C139.682 139.798 142.381 142.208 144.159 145.31C145.938 148.412 146.651 152.052 146.3 156.23H129.796Z" fill="black"/>
<rect x="120.055" y="125.83" width="5.84878" height="79.9184" rx="1.82" transform="rotate(5 120.055 125.83)" fill="black"/>
<g filter="url(#filter0_d_6_3)">
<path d="M67.59 67.59L92.548 92.548C102.788 102.787 116.675 108.54 131.156 108.54H159.5H187.285C201.558 108.54 215.263 102.951 225.466 92.9699L251.41 67.59V159.5C251.41 210.26 210.26 251.41 159.5 251.41V251.41C108.74 251.41 67.59 210.26 67.59 159.5V67.59Z" stroke="black" stroke-width="18.2" stroke-linejoin="round" shape-rendering="crispEdges"/>
</g>
<defs>
<filter id="filter0_d_6_3" x="54.49" y="58.4897" width="210.02" height="210.02" filterUnits="userSpaceOnUse" color-interpolation-filters="sRGB">
<feFlood flood-opacity="0" result="BackgroundImageFix"/>
<feColorMatrix in="SourceAlpha" type="matrix" values="0 0 0 0 0 0 0 0 0 0 0 0 0 0 0 0 0 0 127 0" result="hardAlpha"/>
<feOffset dy="4"/>
<feGaussianBlur stdDeviation="2"/>
<feComposite in2="hardAlpha" operator="out"/>
<feColorMatrix type="matrix" values="0 0 0 0 0 0 0 0 0 0 0 0 0 0 0 0 0 0 0.25 0"/>
<feBlend mode="normal" in2="BackgroundImageFix" result="effect1_dropShadow_6_3"/>
<feBlend mode="normal" in="SourceGraphic" in2="effect1_dropShadow_6_3" result="shape"/>
</filter>
<linearGradient id="paint0_linear_6_3" x1="159.5" y1="0" x2="159.5" y2="319" gradientUnits="userSpaceOnUse">
<stop stop-color="#34F9D5"/>
<stop offset="1" stop-color="#2FB400"/>
</linearGradient>
</defs>
</svg>