<svg width="211" height="211" viewBox="0 0 211 211" fill="none" xmlns="http://www.w3.org/2000/svg">
<path d="M157.696 98.23C157.716 96.1618 157.086 94.5486 155.803 93.3904C154.521 92.2322 152.484 91.6532 149.692 91.6532C147.913 91.6532 146.445 91.86 145.287 92.2736C144.128 92.6872 143.249 93.256 142.65 93.9799C142.071 94.7037 141.729 95.5413 141.626 96.4927C141.523 97.2372 141.605 97.9197 141.874 98.5402C142.143 99.14 142.608 99.688 143.27 100.184C143.932 100.681 144.801 101.125 145.876 101.518C146.952 101.911 148.223 102.263 149.692 102.573L154.78 103.69C158.233 104.435 161.16 105.417 163.559 106.637C165.979 107.837 167.913 109.264 169.36 110.918C170.829 112.573 171.852 114.424 172.432 116.471C173.031 118.519 173.228 120.752 173.021 123.172C172.669 127.35 171.335 130.887 169.019 133.782C166.723 136.677 163.59 138.88 159.619 140.39C155.648 141.9 150.974 142.655 145.597 142.655C140.096 142.655 135.359 141.838 131.388 140.204C127.418 138.549 124.439 136.026 122.454 132.634C120.468 129.222 119.683 124.868 120.096 119.574H136.476C136.414 121.518 136.766 123.152 137.531 124.475C138.296 125.799 139.434 126.802 140.943 127.484C142.474 128.167 144.335 128.508 146.528 128.508C148.389 128.508 149.961 128.281 151.243 127.826C152.525 127.371 153.518 126.74 154.221 125.933C154.924 125.127 155.317 124.206 155.4 123.172C155.483 122.2 155.245 121.352 154.687 120.628C154.128 119.884 153.177 119.212 151.832 118.612C150.488 118.012 148.658 117.464 146.341 116.968L140.137 115.603C134.636 114.362 130.385 112.314 127.387 109.46C124.388 106.606 123.095 102.697 123.509 97.7336C123.84 93.68 125.215 90.1434 127.635 87.1238C130.075 84.0836 133.302 81.7259 137.314 80.0507C141.326 78.3547 145.845 77.5068 150.871 77.5068C156 77.5068 160.364 78.3651 163.962 80.0817C167.582 81.7983 170.281 84.2077 172.059 87.31C173.838 90.4122 174.551 94.0522 174.2 98.23H157.696Z" fill="black"/>
<rect x="147.955" y="67.83" width="5.84878" height="79.9184" rx="1.82" transform="rotate(5 147.955 67.83)" fill="black"/>
<path d="M75.7957 98.23C75.8164 96.1618 75.1856 94.5486 73.9033 93.3904C72.6211 92.2322 70.5839 91.6532 67.7919 91.6532C66.0132 91.6532 64.5448 91.86 63.3866 92.2736C62.2284 92.6872 61.3495 93.256 60.7497 93.9799C60.1706 94.7037 59.8294 95.5413 59.7259 96.4927C59.6225 97.2372 59.7053 97.9197 59.9741 98.5402C60.243 99.14 60.7083 99.688 61.3702 100.184C62.032 100.681 62.9006 101.125 63.9761 101.518C65.0515 101.911 66.3234 102.263 67.7919 102.573L72.8796 103.69C76.3334 104.435 79.2599 105.417 81.659 106.637C84.0788 107.837 86.0125 109.264 87.4603 110.918C88.9287 112.573 89.9524 114.424 90.5315 116.471C91.1313 118.519 91.3278 120.752 91.1209 123.172C90.7694 127.35 89.4354 130.887 87.119 133.782C84.8233 136.677 81.69 138.88 77.7191 140.39C73.7482 141.9 69.0741 142.655 63.6969 142.655C58.1955 142.655 53.4594 141.838 49.4884 140.204C45.5175 138.549 42.5394 136.026 40.5539 132.634C38.5684 129.222 37.7825 124.868 38.1962 119.574H54.5762C54.5141 121.518 54.8657 123.152 55.6309 124.475C56.3962 125.799 57.5337 126.802 59.0434 127.484C60.5739 128.167 62.4353 128.508 64.6275 128.508C66.4889 128.508 68.0607 128.281 69.343 127.826C70.6253 127.371 71.618 126.74 72.3212 125.933C73.0244 125.127 73.4173 124.206 73.5 123.172C73.5828 122.2 73.3449 121.352 72.7865 120.628C72.2281 119.884 71.2767 119.212 69.9324 118.612C68.5881 118.012 66.7578 117.464 64.4414 116.968L58.2369 115.603C52.7355 114.362 48.4854 112.314 45.4865 109.46C42.4877 106.606 41.195 102.697 41.6087 97.7336C41.9396 93.68 43.3149 90.1434 45.7347 87.1238C48.1752 84.0836 51.4015 81.7259 55.4138 80.0507C59.4261 78.3547 63.945 77.5068 68.9707 77.5068C74.0998 77.5068 78.4637 78.3651 82.0623 80.0817C85.6816 81.7983 88.3806 84.2077 90.1592 87.31C91.9379 90.4122 92.6514 94.0522 92.2998 98.23H75.7957Z" fill="black"/>
<rect x="66.0554" y="67.83" width="5.84878" height="79.9184" rx="1.82" transform="rotate(5 66.0554 67.83)" fill="black"/>
<g filter="url(#filter0_d_6_3)">
<path d="M13.59 9.59L38.548 34.548C48.7875 44.7875 62.6752 50.54 77.1561 50.54H105.5H133.285C147.558 50.54 161.263 44.951 171.466 34.9699L197.41 9.59V101.5C197.41 152.26 156.26 193.41 105.5 193.41C54.7395 193.41 13.59 152.26 13.59 101.5V9.59Z" stroke="black" stroke-width="18.2" stroke-linejoin="round" shape-rendering="crispEdges"/>
</g>
<defs>
<filter id="filter0_d_6_3" x="0.490004" y="0.489731" width="210.02" height="210.02" filterUnits="userSpaceOnUse" color-interpolation-filters="sRGB">
<feFlood flood-opacity="0" result="BackgroundImageFix"/>
<feColorMatrix in="SourceAlpha" type="matrix" values="0 0 0 0 0 0 0 0 0 0 0 0 0 0 0 0 0 0 127 0" result="hardAlpha"/>
<feOffset dy="4"/>
<feGaussianBlur stdDeviation="2"/>
<feComposite in2="hardAlpha" operator="out"/>
<feColorMatrix type="matrix" values="0 0 0 0 0 0 0 0 0 0 0 0 0 0 0 0 0 0 0.25 0"/>
<feBlend mode="normal" in2="BackgroundImageFix" result="effect1_dropShadow_6_3"/>
<feBlend mode="normal" in="SourceGraphic" in2="effect1_dropShadow_6_3" result="shape"/>
</filter>
</defs>
</svg>
